PathFileType	4	(X/Y/Z)	C:\Users\Basilio\Documents\Thesis Gigler\squatting_fais\c3dfiles\040\SJ_pre5\markers_experimental.trc
DataRate	CameraRate	NumFrames	NumMarkers	Units	OrigDataRate	OrigDataStartFrame	OrigNumFrames
200.000000	200.000000	4	62	mm	200.000000	1019	1165
Frame#	Time	FHD			LBHD			RBHD			C7			T10			CLAV			LSHO			LUUPA			LMUPA			LDUPA			LLEP			LMEP			LRAD			LUL			LRFIN			RSHO			RUPA1			RMUPA			RDUPA			RLEP			RMEP			RRAD			RUL			RUFIN			LASI			RASI			USACR			LSACR			RSACR			LTHI1			LTHI2			LTHI3			LTHI4			LLFC			LMFC			LTIB1			LTIB2			LTIB3			LTIB4			LLMAL			LMMAL			LHEE			LMT1			LMT2			LMT5			RTHI			RTHI2			RTHI3			RTHI4			RLFC			RMFC			RTIB1			RTIB2			RTIB3			RTIB4			RLMAL			RMMAL			RHEE			RMT1			RMT2			RMT5			*61			
		X1	Y1	Z1	X2	Y2	Z2	X3	Y3	Z3	X4	Y4	Z4	X5	Y5	Z5	X6	Y6	Z6	X7	Y7	Z7	X8	Y8	Z8	X9	Y9	Z9	X10	Y10	Z10	X11	Y11	Z11	X12	Y12	Z12	X13	Y13	Z13	X14	Y14	Z14	X15	Y15	Z15	X16	Y16	Z16	X17	Y17	Z17	X18	Y18	Z18	X19	Y19	Z19	X20	Y20	Z20	X21	Y21	Z21	X22	Y22	Z22	X23	Y23	Z23	X24	Y24	Z24	X25	Y25	Z25	X26	Y26	Z26	X27	Y27	Z27	X28	Y28	Z28	X29	Y29	Z29	X30	Y30	Z30	X31	Y31	Z31	X32	Y32	Z32	X33	Y33	Z33	X34	Y34	Z34	X35	Y35	Z35	X36	Y36	Z36	X37	Y37	Z37	X38	Y38	Z38	X39	Y39	Z39	X40	Y40	Z40	X41	Y41	Z41	X42	Y42	Z42	X43	Y43	Z43	X44	Y44	Z44	X45	Y45	Z45	X46	Y46	Z46	X47	Y47	Z47	X48	Y48	Z48	X49	Y49	Z49	X50	Y50	Z50	X51	Y51	Z51	X52	Y52	Z52	X53	Y53	Z53	X54	Y54	Z54	X55	Y55	Z55	X56	Y56	Z56	X57	Y57	Z57	X58	Y58	Z58	X59	Y59	Z59	X60	Y60	Z60	X61	Y61	Z61	X62	Y62	Z62	

1020	5.095	-255.7913665771485	1770.6826171875	-843.000183105469	-370.6399841308594	1692.65771484375	-867.647888183594	-395.9151306152345	1646.360473632813	-730.4408569335939	-398.5227355957032	1549.92578125	-792.253356933594	-465.6369628906251	1240.334228515625	-795.1657714843752	-276.0887451171876	1472.828979492188	-788.035339355469	-302.3608398437501	1525.52197265625	-960.175964355469	-355.5822448730469	1404.433349609375	-1123.998413085938	-345.6840515136719	1356.151977539063	-1116.31884765625	-377.1409606933594	1354.359252929688	-1167.923950195313	-408.0823059082032	1309.2470703125	-1210.370239257813	-477.9157104492189	1320.4423828125	-1181.531372070313	-471.9773864746095	1085.804443359375	-1027.48974609375	-421.4899902343751	1049.646484375	-1070.4638671875	-423.2135009765626	1089.836181640625	-978.5064697265627	-308.3084411621094	1509.650756835938	-615.8076171875001	-423.3126525878907	1435.81982421875	-461.7127990722657	-409.3620605468751	1388.614135742188	-451.3804626464845	-456.7203063964845	1395.725219726563	-414.1796264648439	-482.2640686035157	1338.704956054688	-374.1285095214844	-549.8888549804689	1336.666870117188	-427.1797180175782	-439.3199768066407	1133.6259765625	-570.4857788085939	-429.4248352050782	1084.872924804688	-512.7413940429689	-376.1239929199219	1114.0107421875	-607.0527343750001	-332.6134033203126	1038.301879882813	-894.8892211914065	-334.5575561523438	1032.280151367188	-681.8065795898439	-503.0907592773439	1117.15966796875	-784.5650024414065	-516.3701171875001	1089.353271484375	-812.8369750976565	-519.0849609375001	1089.1083984375	-757.1024169921876	-456.3127441406251	797.7056274414065	-1010.222961425781	-409.6538391113282	733.0703735351564	-1039.188354492188	-363.0918579101563	742.8368530273439	-1039.416870117188	-422.139617919922	674.4660644531251	-1036.023193359375	-384.9138793945314	552.2344970703126	-1059.422607421875	-362.6287841796876	503.595672607422	-937.9573974609377	-359.1969299316407	329.1144714355469	-1081.671508789063	-441.759002685547	303.6126098632813	-1104.900024414063	-399.2530517578126	291.9333801269532	-1107.578247070313	-388.9090270996095	206.8597564697266	-1094.947998046875	-463.5435791015626	118.4948043823242	-1109.33154296875	-407.5556640625001	116.7752380371094	-1038.6669921875	-507.8989257812501	59.95331192016603	-1058.346069335938	-289.5427246093751	58.35776901245119	-1101.274658203125	-303.9835815429688	55.51000976562501	-1146.032104492188	-363.2723693847657	34.88433456420899	-1179.0751953125	-413.4597778320314	786.5333251953127	-571.2988891601564	-372.5648803710938	734.6575317382814	-558.3829345703126	-339.3393859863282	738.7052612304689	-560.1016845703126	-391.484100341797	652.8572998046876	-567.1166992187501	-370.7778320312501	523.6390380859376	-557.5698242187501	-338.9968261718751	502.6137695312501	-684.0359497070314	-343.5018310546876	332.0628662109376	-554.0941772460939	-433.7754821777345	270.2106018066407	-545.2542114257814	-388.0879516601564	258.1635131835938	-545.8696899414064	-371.8515625000001	207.3358001708985	-569.1477661132814	-441.3275756835939	100.7170486450196	-553.0069580078126	-403.3760070800782	110.5668411254883	-634.1673583984376	-483.8327941894532	42.78490447998048	-617.8277587890626	-271.2677001953126	86.78315734863283	-567.4812011718751	-286.0337524414063	85.56617736816408	-529.7445068359376	-332.6554870605469	48.04964447021486	-490.8653564453126	nan	nan	nan	
1021	5.100000000000001	-257.1590270996094	1773.23828125	-842.9458007812502	-372.0705566406251	1695.43212890625	-867.4446411132815	-397.1759643554689	1648.842407226563	-730.2382202148439	-399.8701477050782	1552.586547851563	-792.2488403320315	-465.574432373047	1242.381958007813	-795.0798339843752	-277.4635314941407	1475.66943359375	-788.038024902344	-303.8215332031251	1528.316040039063	-960.1270141601565	-357.6314697265626	1408.116088867188	-1123.950561523438	-347.2541198730469	1359.814819335938	-1116.41455078125	-379.2478637695313	1358.005004882813	-1167.964111328125	-410.1778259277345	1313.19775390625	-1210.629638671875	-479.5361938476564	1323.25732421875	-1180.97119140625	-470.6654663085939	1088.899780273438	-1027.276611328125	-420.4780273437501	1053.031860351563	-1070.789794921875	-421.0221557617189	1092.65673828125	-978.679626464844	-310.0020751953126	1512.258178710938	-615.8377685546876	-424.8895263671876	1438.376586914063	-462.0222473144532	-410.8921508789064	1391.2529296875	-451.421844482422	-458.2762756347657	1398.31396484375	-414.3208007812501	-483.5931396484376	1341.359741210938	-373.8699035644532	-551.2105712890626	1338.9921875	-427.4390258789064	-438.6307373046876	1136.565307617188	-570.2587280273439	-429.1086425781251	1087.676391601563	-512.4589233398439	-375.3052062988282	1116.666381835938	-606.6055908203126	-330.9874877929688	1040.764770507813	-894.7548828125002	-332.8842468261719	1034.96337890625	-681.4554443359376	-501.9170532226564	1119.066650390625	-784.6208496093752	-515.0731201171876	1091.297607421875	-812.8280029296877	-517.6976318359376	1091.008422851563	-756.9876098632814	-456.4825744628907	800.164001464844	-1009.609436035156	-410.5418090820314	735.0187377929689	-1038.493774414063	-363.9319152832032	744.3820800781251	-1038.583374023438	-423.8753662109376	676.8498535156251	-1035.162475585938	-387.3890380859376	554.0640258789064	-1058.138061523438	-365.7770690917969	505.1347961425782	-936.7026367187502	-361.0495910644532	331.3351135253907	-1081.322509765625	-443.0184936523439	304.6772155761719	-1104.96875	-400.1810913085939	293.7687683105469	-1107.384887695313	-389.4558105468751	209.0586242675782	-1094.620971679688	-462.840789794922	119.5653762817383	-1109.438842773438	-407.0476989746095	117.7399444580078	-1038.951293945313	-507.7388610839845	61.8376922607422	-1058.207275390625	-289.1306152343751	58.18690872192384	-1101.470825195313	-303.7698059082032	55.34374618530275	-1146.280029296875	-363.1373291015626	34.88969802856446	-1179.122192382813	-414.3742065429689	788.3665771484377	-572.3836059570314	-374.3841552734376	735.3001098632814	-559.8703002929689	-340.7061157226563	739.4856567382814	-561.4298095703126	-394.1103515625001	654.2559814453126	-568.8868408203126	-374.7609863281251	524.6690063476564	-559.4049682617189	-342.9931335449219	503.4634399414064	-686.2083129882814	-346.2032470703126	333.1685791015626	-555.4076538085939	-436.1142883300782	270.6445922851563	-546.2906494140626	-390.6220703125001	258.8936767578126	-546.6527709960939	-373.8271179199219	208.1648864746094	-569.8815917968751	-442.3135375976564	100.9809112548828	-553.3006591796876	-404.4154052734376	110.7911758422852	-634.5260009765626	-484.0705871582032	42.61172485351563	-617.8665161132814	-272.1231689453126	88.43677520751955	-567.9185180664064	-286.2473144531251	86.94464111328126	-529.7194824218751	-332.8861389160157	49.02246475219728	-490.9615478515626	nan	nan	nan	
1022	5.105	-258.3423156738282	1775.73193359375	-843.1058349609377	-373.4673461914063	1697.941284179688	-867.4592285156252	-398.3967895507814	1651.628662109375	-730.2155761718751	-401.6027221679689	1554.739868164063	-792.4019775390627	-465.7851867675782	1244.125244140625	-794.9584960937502	-278.4862365722657	1478.543212890625	-788.0922851562502	-305.3849487304688	1531.013793945313	-960.0061035156252	-359.6769104003907	1411.767700195313	-1123.950805664063	-349.2586975097657	1363.4853515625	-1116.786865234375	-381.1607360839844	1361.657104492188	-1168.096801757813	-412.1044311523439	1316.797729492188	-1210.76904296875	-481.6295776367189	1326.4365234375	-1180.7177734375	-468.8856506347657	1091.60498046875	-1027.155639648438	-418.997283935547	1056.344360351563	-1071.319458007813	-419.6208801269532	1095.251098632813	-978.6254882812502	-311.5218505859376	1514.698974609375	-615.8341674804689	-426.4107666015626	1440.6015625	-462.2407226562501	-412.4776306152345	1393.72314453125	-451.2919311523439	-459.5512695312501	1400.730102539063	-414.5634155273439	-484.9302673339845	1343.728637695313	-374.0614624023438	-552.4763793945314	1341.09423828125	-427.515594482422	-437.821990966797	1139.301879882813	-570.0294799804689	-428.7617187500001	1090.610473632813	-511.9916992187501	-374.8249511718751	1118.954345703125	-606.2158813476564	-329.6223449707032	1043.321899414063	-894.4896240234377	-332.0369567871094	1037.305419921875	-680.9596557617189	-500.8607788085939	1120.862182617188	-784.542419433594	-513.9130249023439	1092.920654296875	-812.8317871093752	-516.4979248046876	1092.592529296875	-757.0169067382814	-456.7878723144532	802.967224121094	-1008.936706542969	-411.5350646972657	737.2351074218751	-1037.6376953125	-364.6205444335938	746.0104370117189	-1037.967895507813	-425.2342834472657	678.8701782226564	-1034.339233398438	-390.270477294922	555.6047363281251	-1057.190795898438	-368.5382385253907	506.7286071777345	-935.6092529296877	-362.6958618164063	332.7778930664063	-1080.8154296875	-444.2228088378907	306.2083740234376	-1104.893798828125	-400.9796447753907	295.3933410644532	-1107.679321289063	-389.5299377441407	210.2987518310547	-1095.316162109375	-462.4884643554689	120.6167678833008	-1109.69091796875	-406.9938354492189	119.1882476806641	-1039.546752929688	-507.3701782226564	63.02931213378908	-1058.589233398438	-288.9444885253907	58.16586685180665	-1101.717651367188	-303.4883117675782	55.21410751342775	-1146.535766601563	-363.0196838378907	34.88194274902344	-1179.144897460938	-414.9608154296876	789.9237060546877	-573.2944946289064	-375.5359497070313	737.1491699218751	-560.7471313476564	-342.4005432128907	739.8719482421876	-562.5888061523439	-396.9703979492189	655.4855346679689	-570.6787109375001	-378.3842468261719	525.7043457031251	-561.2744140625001	-346.9823913574219	504.2850341796876	-688.3162841796876	-349.1392211914063	334.2552490234376	-556.4744873046876	-438.4878540039064	271.0326538085938	-547.3340454101564	-392.8144836425782	259.9523315429688	-546.9470214843751	-375.5947875976563	209.2408905029297	-570.5628662109376	-443.1817626953126	101.0855407714844	-553.7162475585939	-405.4285278320314	111.1574783325196	-634.7881469726564	-484.5273437500001	42.42419815063477	-617.8850708007814	-272.6160888671876	89.75794219970705	-568.2718505859376	-286.8932189941407	88.23574066162111	-530.1064453125001	-333.5615234375001	49.93944931030275	-491.5633239746095	nan	nan	nan	
1023	5.11	-259.8130493164063	1777.781372070313	-843.237731933594	-374.9051513671876	1700.342651367188	-867.2959594726565	-399.5110168457032	1653.909057617188	-730.2753906250001	-402.9282531738282	1556.840698242188	-792.453552246094	-465.8006286621095	1245.639404296875	-794.9075317382815	-279.9019775390626	1480.7890625	-788.119323730469	-307.1987304687501	1533.630249023438	-959.9947509765627	-361.6226501464844	1415.024291992188	-1124.012573242188	-350.4290161132813	1366.521728515625	-1117.26416015625	-383.4773864746094	1364.984008789063	-1168.234375	-413.9810485839845	1320.140991210938	-1210.963256835938	-483.627410888672	1329.269897460938	-1180.31689453125	-467.5699462890626	1094.48486328125	-1027.138305664063	-418.1035766601564	1059.333862304688	-1071.571411132813	-418.6040344238282	1097.764038085938	-978.3142700195315	-313.3890991210938	1516.767700195313	-615.7296752929689	-427.7577514648439	1442.891967773438	-462.5109252929689	-413.6267395019532	1395.811157226563	-451.5948791503907	-461.015838623047	1403.209838867188	-414.7810058593751	-486.1634826660157	1345.887939453125	-374.2572326660157	-553.6040649414064	1342.878173828125	-427.6577148437501	-437.1720581054689	1141.8662109375	-569.6948242187501	-428.0359191894532	1093.1181640625	-511.716278076172	-374.0686645507813	1121.213989257813	-605.9664306640626	-328.2179260253907	1045.492431640625	-894.3621215820315	-330.5456237792969	1039.347412109375	-680.6322021484376	-499.959930419922	1122.536743164063	-784.4002075195315	-512.5889282226564	1094.402221679688	-812.733093261719	-515.4509887695314	1094.19580078125	-757.0076293945314	-456.8680725097657	805.0941162109377	-1008.415283203125	-412.1703491210939	738.8312377929689	-1036.987182617188	-365.5590209960938	747.3671875000001	-1037.294799804688	-426.8238525390626	680.9669799804689	-1033.698852539063	-392.6326904296876	556.8781738281251	-1056.314208984375	-371.0313110351563	507.8379211425782	-934.7668457031252	-363.9370727539063	335.2564392089844	-1080.898193359375	-445.0135498046876	307.3102111816407	-1105.057006835938	-401.939422607422	296.4737243652344	-1107.795532226563	-389.4155883789064	211.6378173828126	-1095.148193359375	-462.661590576172	121.8362884521485	-1110.462768554688	-406.1438598632814	120.3180541992188	-1040.311279296875	-507.1293334960939	64.85709381103517	-1058.806518554688	-288.3895568847657	57.76593399047853	-1101.935791015625	-303.1672668457032	55.04489135742189	-1146.787231445313	-362.9083862304688	34.92954254150391	-1179.259521484375	-415.8513488769532	791.5277099609377	-574.1931152343751	-377.4647216796876	737.0344848632814	-562.7642822265626	-343.9847717285157	740.5682373046876	-563.6819458007814	-399.1080932617189	656.8834838867189	-571.8274536132814	-382.1646118164063	526.4401855468751	-563.1742553710939	-350.8263549804688	504.9411010742189	-690.1046142578126	-352.5343627929688	334.7468566894532	-558.0015869140626	-440.5364685058595	271.3581237792969	-548.5446166992189	-395.1495361328126	260.1100158691407	-548.4025878906251	-377.3916931152344	209.9408111572266	-571.2893676757814	-443.8192138671876	101.1511840820313	-553.9644165039064	-406.251922607422	110.9973373413086	-635.1531372070314	-485.0188293457032	42.10426330566407	-618.0435180664064	-274.1009826660157	91.1785354614258	-568.9164428710939	-288.1157836914063	89.70335388183595	-530.5513305664064	-333.6034240722657	51.6521682739258	-491.4021911621095	nan	nan	nan	
